<?xml version="1.0" encoding="utf-8"?>
<!-- Generator: Adobe Illustrator 24.3.0, SVG Export Plug-In . SVG Version: 6.00 Build 0)  -->
<svg version="1.1" id="Layer_1" xmlns="http://www.w3.org/2000/svg" xmlns:xlink="http://www.w3.org/1999/xlink" x="0px" y="0px"
	 viewBox="0 0 481.1 113.2" style="enable-background:new 0 0 481.1 113.2;" xml:space="preserve">
<style type="text/css">
	.st0{fill:#FFEAD0;}
</style>
<g>
	<path class="st0" d="M86.8,77.4h1c1.3,0,1.6-0.2,1.7-1.4V54.7c0-1.4-0.3-1.7-1.7-1.7h-1v-1.4h12.9V53h-1c-1.4,0-1.7,0.3-1.7,1.7
		v9.5l9-10.4c0.1-0.2,0.2-0.3,0.2-0.4c0-0.2-0.2-0.4-0.5-0.4H104v-1.4h7V53h-1.6c-0.5,0-0.9,0.2-1.2,0.5l-5.5,6.3l8.1,16.6
		c0.3,0.7,0.6,0.9,1.2,0.9h0.7v1.4h-12.3v-1.4h0.8c0.7,0,1.1-0.5,1.1-0.9c0-0.2-0.1-0.4-0.1-0.6l-4.6-10L97,66.6v9.1
		c0,1.4,0.3,1.7,1.7,1.7h0.6v1.4H86.8V77.4z M95.6,53.9c0-0.3,0.1-0.6,0.2-0.9h-5.3c0.1,0.2,0.2,0.5,0.2,0.9H95.6z M95.8,77.4
		c-0.1-0.3-0.2-0.5-0.2-0.9h-4.8c0,0.3-0.1,0.6-0.2,0.9H95.8z M95.6,55.5v-0.9h-4.7v0.9H95.6z M95.6,57.2v-0.9h-4.7v0.9H95.6z
		 M95.6,58.9V58h-4.7v0.9H95.6z M95.6,60.6v-0.9h-4.7v0.9H95.6z M95.6,62.3v-0.9h-4.7l0,0.9H95.6z M95.6,63.9v-0.9h-4.7v0.9H95.6z
		 M95.6,65.6v-0.9h-4.7v0.9H95.6z M95.6,67.3v-0.9h-4.7v0.9H95.6z M95.6,69v-0.9h-4.7V69H95.6z M95.6,70.6v-0.9h-4.7v0.9H95.6z
		 M95.6,72.3v-0.9h-4.7v0.9H95.6z M95.6,74v-0.9h-4.7V74H95.6z M95.6,75.7v-0.9h-4.7v0.9H95.6z M104,65.6l-0.4-0.9h-5l0.4,0.9H104z
		 M103.1,63.9l-0.4-0.9h-2.9L99,63.9H103.1z M104.8,67.3l-0.4-0.9h-5l0.4,0.9H104.8z M105.6,69l-0.4-0.9h-5.1l0.4,0.9H105.6z
		 M102.3,62.2l-0.7-1.2l-1.1,1.2H102.3z M106.4,70.6l-0.4-0.9h-5.1l0.4,0.9H106.4z M107.2,72.3l-0.4-0.9h-5.1l0.4,0.9H107.2z
		 M108.1,74l-0.4-0.9h-5.2l0.4,0.9H108.1z M108.9,75.7l-0.4-0.9h-5.2l0.2,0.5c0,0.1,0.1,0.2,0.1,0.4H108.9z M109.7,77.4l-0.4-0.9
		h-5.5c0,0.3-0.1,0.6-0.2,0.9H109.7z M107.6,53h-0.9c0.2,0.2,0.3,0.4,0.3,0.7C107.2,53.5,107.4,53.2,107.6,53z"/>
	<path class="st0" d="M114.3,77.4h1c1.4,0,1.7-0.3,1.7-1.7v-21c0-1.4-0.3-1.7-1.7-1.7h-1v-1.4h20.3v8.9h-1.5c0-4.9-3.7-7.5-7.6-7.6
		c-0.3,0-1,0-1,0.3v10.9c2.2,0,4.2-2.4,4.2-5.8h1.5v13.1h-1.5c0-3.9-1.9-5.9-4.2-5.9l0,10.2c0,1.3,0.3,1.8,1.5,1.8
		c4,0,7.5-5.4,7.7-9.6h1.5l-0.3,10.8h-20.5V77.4z M123,53.9V53h-5c0.1,0.2,0.2,0.5,0.2,0.9H123z M123.2,77.4
		c-0.1-0.3-0.2-0.5-0.2-0.9h-4.8c0,0.3-0.1,0.6-0.2,0.9H123.2z M123,55.5v-0.9h-4.7v0.9H123z M123,57.2v-0.9h-4.7v0.9H123z
		 M123,58.9V58h-4.7v0.9H123z M123,60.6v-0.9h-4.7v0.9H123z M123,62.3v-0.9h-4.7v0.9H123z M123,63.9v-0.9h-4.7v0.9H123z M123,65.6
		v-0.9h-4.7v0.9H123z M123,67.3v-0.9h-4.7v0.9H123z M123,69v-0.9h-4.7V69H123z M123,70.7l0-0.9h-4.7v0.9H123z M123,72.3v-0.9h-4.7
		v0.9H123z M123,74v-0.9h-4.7V74H123z M123,75.7v-0.9h-4.7v0.9H123z M128.7,64.3v-1.5c-0.4,0.6-1.1,1.3-1.7,1.5H128.7z M128.7,65.2
		H127c0.5,0.2,1.3,0.9,1.7,1.4V65.2z M133.4,77.4l0-0.9h-2.5c-0.3,0.3-0.7,0.6-1,0.9H133.4z M133.2,53.7V53h-2.6
		c0.3,0.2,0.7,0.5,1,0.7H133.2z M133.4,75.8l0-0.9h-1.2c-0.2,0.3-0.4,0.6-0.7,0.9H133.4z M133.2,54.5h-0.9c0.3,0.4,0.6,0.8,0.9,1.3
		V54.5z M133.5,74.2l0-1.2c-0.2,0.4-0.4,0.8-0.7,1.2H133.5z"/>
	<path class="st0" d="M138.6,77.4h1c1.4,0,1.7-0.3,1.7-1.7v-21c0-1.4-0.3-1.7-1.7-1.7h-1v-1.4h12.8V53h-1c-1.4,0-1.7,0.3-1.7,1.7
		v20.4c0,1.8,0.3,2.4,1.4,2.4c3.2,0,6.5-5.6,6.8-9.7h1.4l-0.3,11h-19.5V77.4z M147.4,53.9c0-0.3,0.1-0.6,0.2-0.9h-5.2
		c0.1,0.2,0.2,0.5,0.2,0.9H147.4z M147.7,77.4c-0.1-0.3-0.2-0.6-0.2-0.9h-4.9c-0.1,0.3-0.1,0.6-0.2,0.9H147.7z M147.3,55.5v-0.9
		h-4.7v0.9H147.3z M147.3,57.2v-0.9h-4.7v0.9H147.3z M147.3,58.9V58h-4.7v0.9H147.3z M147.3,60.6v-0.9h-4.7v0.9H147.3z M147.3,62.3
		v-0.9h-4.7v0.9H147.3z M147.3,63.9v-0.9h-4.7v0.9H147.3z M147.3,65.6v-0.9h-4.7v0.9H147.3z M147.3,67.3v-0.9h-4.7v0.9H147.3z
		 M147.3,69v-0.9h-4.7V69H147.3z M147.3,70.7v-0.9h-4.7v0.9H147.3z M147.3,72.3v-0.9h-4.7v0.9H147.3z M147.3,74v-0.9h-4.7V74H147.3z
		 M147.4,75.7l0-0.6v-0.2h-4.7v0.9H147.4z M156.7,77.4l0-0.9h-2.2c-0.3,0.3-0.6,0.6-0.9,0.9H156.7z M156.7,75.7v-0.9h-0.9
		c-0.2,0.3-0.4,0.6-0.6,0.9H156.7z M156.8,74.1l0-1c-0.1,0.3-0.4,0.7-0.6,1H156.8z"/>
	<path class="st0" d="M163.3,76.9c-0.8,0-0.9,0.9-1,1.9h-1.4V68.1h1.4c0.2,5.5,3.5,9,6.5,9c1.7,0,3.4-1.2,3.4-3.7
		c0-6.5-10.9-5.2-10.9-14.1c0-5.3,3.7-8.2,8.2-8.2c3.7,0,5,2.2,6,2.2c0.6,0,0.7-0.7,0.8-1.7h1.4v9.2h-1.5c-0.1-3.8-2.1-8-5.7-8
		c-1.9,0-3.2,1.3-3.2,3.4c0,6,11.8,4.6,11.8,14.4c0,6-4.5,8.6-8.5,8.6C166.7,79.2,164.6,76.9,163.3,76.9z M163.2,75.5
		c-0.4-0.5-0.7-1.1-1-1.7v1.9C162.4,75.6,162.8,75.5,163.2,75.5z M166.4,58.9c-0.2-0.3-0.3-0.6-0.4-0.9h-3.6c0,0.3-0.1,0.6-0.1,0.9
		H166.4z M167.8,60.6c-0.3-0.3-0.6-0.6-0.8-0.9h-4.6c0,0.3,0,0.6,0.1,0.9H167.8z M165.8,57.2c0-0.3-0.1-0.6-0.1-0.9h-2.8
		c-0.1,0.3-0.2,0.6-0.3,0.9H165.8z M170.4,62.3c-0.5-0.3-1-0.6-1.5-0.9h-6.2c0.1,0.3,0.2,0.6,0.4,0.9H170.4z M165.8,55.5
		c0-0.3,0.1-0.6,0.2-0.9h-2c-0.2,0.3-0.4,0.6-0.6,0.9H165.8z M173.5,64c-0.5-0.3-1-0.6-1.5-0.9h-8.3c0.3,0.3,0.6,0.6,0.9,0.9H173.5z
		 M166.3,53.8c0.1-0.3,0.4-0.7,0.7-1c-0.7,0.2-1.5,0.6-2.1,1H166.3z M175.7,65.8c-0.3-0.3-0.6-0.6-1-0.9h-9.1c0.5,0.3,1,0.6,1.5,0.9
		H175.7z M176.9,67.5c-0.1-0.3-0.3-0.6-0.5-0.9h-7.8c0.5,0.3,0.9,0.6,1.4,0.9H176.9z M174.3,76.8h-2.1c-0.3,0.3-0.8,0.7-1.2,1
		C172.3,77.7,173.4,77.3,174.3,76.8z M177.4,69.2c-0.1-0.3-0.1-0.6-0.2-0.9h-6.1c0.3,0.3,0.6,0.6,0.8,0.9H177.4z M177.5,70.9v-0.3
		V70h-5.1c0.2,0.3,0.3,0.6,0.4,0.9H177.5z M175.4,76c0.3-0.3,0.6-0.6,0.8-0.9h-3.1c-0.1,0.3-0.2,0.6-0.4,0.9H175.4z M177.3,72.6
		c0.1-0.3,0.1-0.6,0.2-0.9h-4.3c0.1,0.3,0.1,0.6,0.1,0.9H177.3z M176.7,74.3c0.1-0.3,0.3-0.6,0.4-0.9h-3.7c0,0.3,0,0.6-0.1,0.9
		H176.7z M176.4,54.3c-0.2,0.1-0.6,0.2-0.8,0.2c0.2,0.4,0.6,1,0.8,1.4V54.3z"/>
	<path class="st0" d="M181.5,77.4h1c1.4,0,1.7-0.3,1.7-1.7v-21c0-1.4-0.3-1.7-1.7-1.7h-1v-1.4h20.3v8.9h-1.5c0-4.9-3.7-7.5-7.6-7.6
		c-0.3,0-1,0-1,0.3v10.9c2.2,0,4.2-2.4,4.2-5.8h1.5v13.1h-1.5c0-3.9-1.9-5.9-4.2-5.9l0,10.2c0,1.3,0.3,1.8,1.5,1.8
		c4,0,7.5-5.4,7.7-9.6h1.5L202,78.8h-20.5V77.4z M190.3,53.9V53h-5c0.1,0.2,0.2,0.5,0.2,0.9H190.3z M190.5,77.4
		c-0.1-0.3-0.2-0.5-0.2-0.9h-4.8c0,0.3-0.1,0.6-0.2,0.9H190.5z M190.3,55.5v-0.9h-4.7v0.9H190.3z M190.3,57.2v-0.9h-4.7v0.9H190.3z
		 M190.3,58.9V58h-4.7v0.9H190.3z M190.3,60.6v-0.9h-4.7v0.9H190.3z M190.3,62.3v-0.9h-4.7v0.9H190.3z M190.3,63.9v-0.9h-4.7v0.9
		H190.3z M190.3,65.6v-0.9h-4.7v0.9H190.3z M190.3,67.3v-0.9h-4.7v0.9H190.3z M190.3,69v-0.9h-4.7V69H190.3z M190.3,70.7l0-0.9h-4.7
		v0.9H190.3z M190.3,72.3v-0.9h-4.7v0.9H190.3z M190.3,74v-0.9h-4.7V74H190.3z M190.3,75.7v-0.9h-4.7v0.9H190.3z M196,64.3v-1.5
		c-0.4,0.6-1.1,1.3-1.7,1.5H196z M196,65.2h-1.7c0.5,0.2,1.3,0.9,1.7,1.4V65.2z M200.7,77.4l0-0.9h-2.5c-0.3,0.3-0.7,0.6-1,0.9
		H200.7z M200.4,53.7V53h-2.6c0.3,0.2,0.7,0.5,1,0.7H200.4z M200.7,75.8l0-0.9h-1.2c-0.2,0.3-0.4,0.6-0.7,0.9H200.7z M200.4,54.5
		h-0.9c0.3,0.4,0.6,0.8,0.9,1.3V54.5z M200.8,74.2l0-1.2c-0.2,0.4-0.4,0.8-0.7,1.2H200.8z"/>
	<path class="st0" d="M209.1,77.4h1c1.2,0,1.6-0.2,1.6-1.1V65.6l-5.7-11.7c-0.3-0.6-0.8-0.9-1.5-0.9h-1v-1.4h12.2V53h-1.2
		c-0.5,0-0.9,0.4-0.9,0.8c0,0.1,0,0.3,0.1,0.4l4.6,9.8l4.6-9.8c0.1-0.2,0.1-0.3,0.1-0.4c0-0.5-0.4-0.8-0.9-0.8h-1.2v-1.4h6.3V53h-1
		c-0.7,0-1.2,0.3-1.5,0.9l-5.7,11.7v10.1c0,1.4,0.3,1.7,1.7,1.7h1v1.4h-12.8V77.4z M212.3,53.9L212.3,53.9c0-0.3,0-0.6,0.2-0.9h-5.4
		c0.1,0.1,0.1,0.1,0.1,0.2l0.3,0.6H212.3z M212.9,55.5l-0.3-0.7c0-0.1-0.1-0.1-0.1-0.2H208l0.4,0.9H212.9z M213.7,57.2l-0.4-0.9
		h-4.5l0.4,0.9H213.7z M214.5,58.9l-0.4-0.9h-4.5l0.4,0.9H214.5z M215.3,60.6l-0.4-0.9h-4.5l0.4,0.9H215.3z M216.1,62.3l-0.4-0.9
		h-4.5l0.4,0.9H216.1z M216.9,63.9l-0.4-0.9H212l0.4,0.9H216.9z M217.6,65.6l-0.4-0.9h-4.4l0.3,0.9H217.6z M218.1,77.4
		c-0.1-0.3-0.2-0.5-0.2-0.9h-4.8c0,0.3-0.1,0.6-0.2,0.9H218.1z M217.9,67.3v-0.9h-4.8l0,0.9H217.9z M217.9,69v-0.9h-4.8l0,0.9H217.9
		z M217.9,70.6v-0.9h-4.8l0,0.9H217.9z M217.9,72.3v-0.9h-4.8l0,0.9H217.9z M217.9,74v-0.9h-4.7l0,0.9H217.9z M217.9,75.7v-0.9h-4.7
		l0,0.9H217.9z M224.7,53h-0.9c0.2,0.2,0.3,0.4,0.3,0.7C224.3,53.5,224.5,53.2,224.7,53z"/>
	<path class="st0" d="M238,77.4h1c1.4,0,1.7-0.3,1.7-1.7v-21c0-1.4-0.3-1.7-1.7-1.7h-1v-1.4h12.7V53h-0.8c-1.4,0-1.7,0.3-1.7,1.7
		v9.5h6v-9.5c0-1.4-0.3-1.7-1.7-1.7h-0.8v-1.4h12.7V53h-1c-1.4,0-1.7,0.3-1.7,1.7v21c0,1.4,0.3,1.7,1.7,1.7h1v1.4h-12.7v-1.4h0.8
		c1.4,0,1.7-0.3,1.7-1.7V65.6h-6v10.1c0,1.4,0.3,1.7,1.7,1.7h0.8v1.4H238V77.4z M246.8,53.9c0-0.3,0.1-0.6,0.2-0.9h-5.2
		c0.1,0.2,0.2,0.5,0.2,0.9H246.8z M247,77.4c-0.1-0.3-0.2-0.5-0.2-0.9H242c0,0.3-0.1,0.6-0.2,0.9H247z M246.7,55.5v-0.9H242v0.9
		H246.7z M246.7,57.2v-0.9H242v0.9H246.7z M246.7,58.9V58H242v0.9H246.7z M246.7,60.6v-0.9H242v0.9H246.7z M246.7,62.3v-0.9H242v0.9
		H246.7z M246.7,63.9v-0.9H242v0.9H246.7z M246.7,65.6v-0.9H242v0.9H246.7z M246.7,67.3v-0.9H242v0.9H246.7z M246.7,69v-0.9H242V69
		H246.7z M246.7,70.6v-0.9H242v0.9H246.7z M246.7,72.3v-0.9H242v0.9H246.7z M246.7,74v-0.9H242V74H246.7z M246.7,75.7v-0.9H242v0.9
		H246.7z M260.3,53.9c0-0.3,0.1-0.6,0.2-0.9h-5.2c0.1,0.2,0.2,0.5,0.2,0.9H260.3z M260.5,77.4c-0.1-0.3-0.2-0.5-0.2-0.9h-4.8
		c0,0.3-0.1,0.6-0.2,0.9H260.5z M260.3,55.5v-0.9h-4.7v0.9H260.3z M260.3,57.2v-0.9h-4.7v0.9H260.3z M260.3,58.9V58h-4.7v0.9H260.3z
		 M260.3,60.6v-0.9h-4.7v0.9H260.3z M260.3,62.3v-0.9h-4.7v0.9H260.3z M260.3,63.9v-0.9h-4.7v0.9H260.3z M260.3,65.6v-0.9h-4.7v0.9
		H260.3z M260.3,67.3v-0.9h-4.7v0.9H260.3z M260.3,69v-0.9h-4.7V69H260.3z M260.3,70.6v-0.9h-4.7v0.9H260.3z M260.3,72.3v-0.9h-4.7
		v0.9H260.3z M260.3,74v-0.9h-4.7V74H260.3z M260.3,75.7v-0.9h-4.7v0.9H260.3z"/>
	<path class="st0" d="M266.9,77.4h1c1.4,0,1.7-0.3,1.7-1.7v-21c0-1.4-0.3-1.7-1.7-1.7h-1v-1.4h20.3v8.9h-1.5c0-4.9-3.7-7.5-7.6-7.6
		c-0.3,0-1,0-1,0.3v10.9c2.2,0,4.2-2.4,4.2-5.8h1.5v13.1h-1.5c0-3.9-1.9-5.9-4.2-5.9l0,10.2c0,1.3,0.3,1.8,1.5,1.8
		c4,0,7.5-5.4,7.7-9.6h1.5l-0.3,10.8h-20.5V77.4z M275.6,53.9V53h-5c0.1,0.2,0.2,0.5,0.2,0.9H275.6z M275.8,77.4
		c-0.1-0.3-0.2-0.5-0.2-0.9h-4.8c0,0.3-0.1,0.6-0.2,0.9H275.8z M275.6,55.5v-0.9h-4.7v0.9H275.6z M275.6,57.2v-0.9h-4.7v0.9H275.6z
		 M275.6,58.9V58h-4.7v0.9H275.6z M275.6,60.6v-0.9h-4.7v0.9H275.6z M275.6,62.3v-0.9h-4.7v0.9H275.6z M275.6,63.9v-0.9h-4.7v0.9
		H275.6z M275.6,65.6v-0.9h-4.7v0.9H275.6z M275.6,67.3v-0.9h-4.7v0.9H275.6z M275.6,69v-0.9h-4.7V69H275.6z M275.6,70.7l0-0.9h-4.7
		v0.9H275.6z M275.6,72.3v-0.9h-4.7v0.9H275.6z M275.6,74v-0.9h-4.7V74H275.6z M275.6,75.7v-0.9h-4.7v0.9H275.6z M281.3,64.3v-1.5
		c-0.4,0.6-1.1,1.3-1.7,1.5H281.3z M281.3,65.2h-1.7c0.5,0.2,1.3,0.9,1.7,1.4V65.2z M286,77.4l0-0.9h-2.5c-0.3,0.3-0.7,0.6-1,0.9
		H286z M285.8,53.7V53h-2.6c0.3,0.2,0.7,0.5,1,0.7H285.8z M286,75.8l0-0.9h-1.2c-0.2,0.3-0.4,0.6-0.7,0.9H286z M285.8,54.5h-0.9
		c0.3,0.4,0.6,0.8,0.9,1.3V54.5z M286.1,74.2l0-1.2c-0.2,0.4-0.4,0.8-0.7,1.2H286.1z"/>
	<path class="st0" d="M291.2,77.4h0.7c1.4,0,1.7-0.3,1.7-1.7V54.3c0-1.1-0.4-1.3-1.6-1.3h-0.7v-1.4h10l8.3,16.4V54.7
		c0-1.5-0.3-1.7-1.7-1.7h-0.7v-1.4h6.3V53h-0.7c-1.2,0-1.6,0.2-1.6,1.6l-0.2,24.1h-5.3L295,56.8l0.2,18.9c0,1.4,0.4,1.7,1.7,1.7h0.8
		v1.4h-6.6V77.4z M294.8,77.4c-0.2-0.3-0.3-0.5-0.5-0.8c-0.1,0.3-0.3,0.5-0.5,0.8H294.8z M300.9,53.9l-0.4-0.9h-5.8
		c0.1,0.1,0.2,0.3,0.2,0.4l0.2,0.5H300.9z M301.8,55.5l-0.4-0.9h-5.8l0.4,0.9H301.8z M302.6,57.2l-0.4-0.9h-5.8l0.4,0.9H302.6z
		 M303.5,58.9L303,58h-5.9l0.4,0.9H303.5z M304.3,60.6l-0.5-0.9H298l0.4,0.9H304.3z M305.2,62.3l-0.4-0.9h-5.9l0.4,0.9H305.2z
		 M306,63.9l-0.4-0.9h-5.9l0.4,0.9H306z M306.9,65.6l-0.4-0.9h-6l0.4,0.9H306.9z M307.7,67.3l-0.4-0.9h-6l0.4,0.9H307.7z M308.6,69
		l-0.4-0.9h-6l0.4,0.9H308.6z M309.4,70.6l-0.4-0.9h-6l0.4,0.9H309.4z M309.7,72.3v-0.9h-6l0.4,0.9H309.7z M309.7,74l0-0.9h-5.2
		L305,74H309.7z M309.7,75.7v-0.9h-4.4l0.4,0.9H309.7z M309.7,77.4v-0.9h-3.5l0.4,0.9H309.7z M310.9,52.9H310
		c0.2,0.3,0.3,0.5,0.5,0.8C310.6,53.5,310.7,53.2,310.9,52.9z"/>
	<path class="st0" d="M315.4,77.4h1c1.4,0,1.7-0.3,1.7-1.7v-21c0-1.4-0.3-1.7-1.7-1.7h-1v-1.4h11.8c6.9,0,11.7,4.2,11.7,13.5
		c0,8.8-4.3,13.7-11.7,13.7h-11.8V77.4z M324.2,53.8V53h-5c0.1,0.2,0.2,0.5,0.2,0.8H324.2z M324.2,77.3v-0.9h-4.7
		c-0.1,0.3-0.1,0.6-0.2,0.9H324.2z M324.2,55.5v-0.9h-4.7v0.9H324.2z M324.2,57.2v-0.9h-4.7v0.9H324.2z M324.2,58.9V58h-4.7v0.9
		H324.2z M324.2,60.6v-0.9h-4.7v0.9H324.2z M324.2,62.2v-0.9h-4.7v0.9H324.2z M324.2,63.9V63h-4.7v0.9H324.2z M324.2,65.6v-0.9h-4.7
		v0.9H324.2z M324.2,67.3v-0.9h-4.7v0.9H324.2z M324.2,68.9v-0.9h-4.7v0.9H324.2z M324.2,70.6v-0.9h-4.7v0.9H324.2z M324.2,72.3
		v-0.9h-4.7v0.9H324.2z M324.2,74v-0.9h-4.7V74H324.2z M324.2,75.7v-0.9h-4.7v0.9H324.2z M331.1,65.2c0-8.1-1.3-12.3-4.6-12.3
		c-0.3,0-0.7,0-0.9,0.1v24.4c0.2,0.1,0.9,0.1,1.1,0.1C329.8,77.5,331.1,73.3,331.1,65.2z M332.1,53.8c-0.5-0.3-1.4-0.6-2-0.7
		c0.1,0.2,0.4,0.5,0.5,0.7H332.1z M332.1,76.5h-1.4c-0.1,0.2-0.3,0.6-0.5,0.7C330.8,77.1,331.6,76.8,332.1,76.5z M334.4,55.5
		c-0.3-0.3-0.7-0.6-1-0.9H331c0.1,0.3,0.3,0.5,0.4,0.9H334.4z M333.4,75.7c0.4-0.3,0.7-0.6,1-0.9h-3c-0.1,0.3-0.2,0.6-0.3,0.9H333.4
		z M335.8,57.2c-0.2-0.3-0.4-0.6-0.6-0.9h-3.5c0.1,0.3,0.2,0.6,0.2,0.9H335.8z M335.1,74l0.6-0.9h-3.8c-0.1,0.3-0.1,0.6-0.2,0.9
		H335.1z M336.6,58.9c-0.1-0.3-0.2-0.6-0.4-0.9H332c0.1,0.3,0.1,0.6,0.1,0.9H336.6z M336.2,72.3l0.4-0.9h-4.4
		c-0.1,0.3-0.1,0.6-0.2,0.9H336.2z M337.1,60.6c-0.1-0.3-0.2-0.6-0.3-0.9h-4.6l0.1,0.9H337.1z M336.9,70.6c0.1-0.3,0.2-0.6,0.2-0.9
		h-4.7l-0.1,0.9H336.9z M337.4,62.2c0-0.3-0.1-0.6-0.1-0.9h-4.9c0,0.3,0,0.6,0.1,0.9H337.4z M337.3,68.9c0.1-0.3,0.1-0.6,0.2-0.9h-5
		c0,0.3,0,0.6,0,0.9H337.3z M337.6,63.9c0-0.3-0.1-0.6-0.1-0.9h-5c0,0.3,0,0.6,0,0.9H337.6z M337.5,67.3c0-0.3,0.1-0.6,0.1-0.9h-5
		c0,0.3,0,0.6,0,0.9H337.5z M337.6,65.6v-0.9h-5.1v0.9H337.6z"/>
	<path class="st0" d="M355.5,71.9c-0.6-3.9-1.2-6.5-3.7-6.5c-0.3,0-0.4,0-0.4,0v10.3c0,1.4,0.3,1.7,1.7,1.7h1v1.4h-12.7v-1.4h1
		c1.4,0,1.7-0.3,1.7-1.7v-21c0-1.4-0.3-1.7-1.7-1.7h-1v-1.4h12.3c6.6,0,10,1.9,10,6.5c0,3.9-2.4,6.4-5.8,6.8v0.1
		c5.5,1,6,6.9,6.2,8.4c0.1,0.6,0,1.7,0.7,1.7s1.1-1.1,1.2-2.9l1.4,0.2c-0.1,3.9-2,6.6-5.8,6.6C356.6,79.2,355.9,74.7,355.5,71.9z
		 M349.9,53.9V53h-4.8c0.1,0.2,0.2,0.5,0.2,0.9H349.9z M350.2,77.4c-0.1-0.3-0.2-0.5-0.2-0.9h-4.6c-0.1,0.3-0.1,0.6-0.2,0.9H350.2z
		 M349.9,55.5v-0.9h-4.5v0.9H349.9z M349.9,57.2v-0.9h-4.5v0.9H349.9z M349.9,58.9V58h-4.5v0.9H349.9z M349.9,60.6v-0.9h-4.5v0.9
		H349.9z M349.9,62.3v-0.9h-4.5v0.9H349.9z M349.9,63.9v-0.9h-4.5v0.9H349.9z M349.9,65.6v-0.9h-4.5v0.9H349.9z M349.9,67.3v-0.9
		h-4.5v0.9H349.9z M349.9,69v-0.9h-4.5V69H349.9z M349.9,70.7v-0.9h-4.5v0.9H349.9z M349.9,72.3v-0.9h-4.5v0.9H349.9z M349.9,74
		v-0.9h-4.5V74H349.9z M349.9,75.7v-0.9h-4.5v0.9H349.9z M355.9,58.5c0-3.7-1.2-5.8-3.7-5.8c-0.3,0-0.6,0-0.8,0.1v11.2
		c0.2,0.1,0.5,0.1,0.8,0.1C354.8,64.2,355.9,62.1,355.9,58.5z M358.5,66.3c-1.2-0.6-2.2-0.8-3.5-0.8c0.2,0.2,0.3,0.5,0.5,0.8H358.5z
		 M359.3,63.3h-3c-0.2,0.3-0.5,0.7-0.7,0.9C357.1,64.2,358.1,64,359.3,63.3z M359.9,54c-1-0.6-3.1-0.9-4.1-0.9
		c0.2,0.3,0.4,0.6,0.6,0.9H359.9z M360.5,67.9c-0.3-0.3-0.6-0.6-0.9-0.9h-3.8c0.1,0.3,0.2,0.6,0.3,0.9H360.5z M361.5,69.6
		c-0.1-0.3-0.3-0.6-0.5-0.9h-4.7l0.2,0.9H361.5z M360.4,62.5c0.3-0.3,0.6-0.6,0.8-0.9h-4.3l-0.3,0.9H360.4z M361.6,55.7
		c-0.2-0.3-0.4-0.6-0.6-0.9h-4.3c0.1,0.3,0.2,0.6,0.3,0.9H361.6z M362.1,71.2c-0.1-0.3-0.2-0.6-0.3-0.9h-5.1l0.1,0.9H362.1z
		 M362.5,72.8l-0.2-0.9H357l0.1,0.9H362.5z M361.7,60.8c0.1-0.3,0.3-0.6,0.3-0.9h-4.8c0,0.3-0.1,0.6-0.1,0.9H361.7z M362.2,57.4
		c0-0.3-0.1-0.6-0.2-0.9h-4.8c0.1,0.3,0.1,0.6,0.1,0.9H362.2z M362.7,74.5c-0.1-0.3-0.1-0.6-0.1-0.8v0h-5.3c0.1,0.3,0.1,0.6,0.2,0.9
		H362.7z M362.2,59.1c0-0.3,0.1-0.6,0.1-0.8v0h-4.9v0.3c0,0.2,0,0.3,0,0.5H362.2z M363.3,76.1c-0.2-0.2-0.4-0.5-0.5-0.9h-5.1
		c0.1,0.3,0.3,0.6,0.5,0.9H363.3z M364.2,76.9h-5.4c0.8,0.7,1.6,0.9,2.5,0.9C362.5,77.8,363.4,77.6,364.2,76.9z"/>
	<path class="st0" d="M371.3,77.4h1c1.2,0,1.6-0.2,1.6-1.1V65.6l-5.7-11.7c-0.3-0.6-0.8-0.9-1.5-0.9h-1v-1.4H378V53h-1.2
		c-0.5,0-0.9,0.4-0.9,0.8c0,0.1,0,0.3,0.1,0.4l4.6,9.8l4.6-9.8c0.1-0.2,0.1-0.3,0.1-0.4c0-0.5-0.4-0.8-0.9-0.8h-1.2v-1.4h6.3V53h-1
		c-0.7,0-1.2,0.3-1.5,0.9l-5.7,11.7v10.1c0,1.4,0.3,1.7,1.7,1.7h1v1.4h-12.8V77.4z M374.5,53.9L374.5,53.9c0-0.3,0-0.6,0.2-0.9h-5.4
		c0.1,0.1,0.1,0.1,0.1,0.2l0.3,0.6H374.5z M375.1,55.5l-0.3-0.7c0-0.1-0.1-0.1-0.1-0.2h-4.5l0.4,0.9H375.1z M375.8,57.2l-0.4-0.9
		h-4.5l0.4,0.9H375.8z M376.6,58.9l-0.4-0.9h-4.5l0.4,0.9H376.6z M377.4,60.6l-0.4-0.9h-4.5l0.4,0.9H377.4z M378.2,62.3l-0.4-0.9
		h-4.5l0.4,0.9H378.2z M379,63.9l-0.4-0.9h-4.5l0.4,0.9H379z M379.8,65.6l-0.4-0.9H375l0.3,0.9H379.8z M380.3,77.4
		c-0.1-0.3-0.2-0.5-0.2-0.9h-4.8c0,0.3-0.1,0.6-0.2,0.9H380.3z M380,67.3v-0.9h-4.8l0,0.9H380z M380,69v-0.9h-4.8l0,0.9H380z
		 M380,70.6v-0.9h-4.8l0,0.9H380z M380,72.3v-0.9h-4.8l0,0.9H380z M380,74v-0.9h-4.7l0,0.9H380z M380,75.7v-0.9h-4.7l0,0.9H380z
		 M386.9,53H386c0.2,0.2,0.3,0.4,0.3,0.7C386.5,53.5,386.7,53.2,386.9,53z"/>
</g>
</svg>
